<svg id="Layer_1" data-name="Layer 1" xmlns="http://www.w3.org/2000/svg" viewBox="0 0 236.18 236.29"><defs><style>.cls-1{fill:#0096e6;}.cls-2{fill:#fff;}</style></defs><title>icon-mysql</title><path class="cls-1" d="M229.24,195.71c-12.88-.35-22.72.85-31.13,4.4-2.39,1-6.2,1-6.59,4,1.32,1.38,1.52,3.43,2.56,5.13,2,3.25,5.4,7.6,8.42,9.89,3.3,2.49,6.71,5.16,10.26,7.32,6.3,3.84,13.34,6,19.41,9.89,3.58,2.27,7.13,5.13,10.62,7.69,1.73,1.26,2.88,3.23,5.13,4v-0.36c-1.18-1.5-1.48-3.56-2.56-5.13l-4.76-4.76a78.1,78.1,0,0,0-16.85-16.11c-5-3.6-16.22-8.45-18.31-14.28l-0.37-.37a80.4,80.4,0,0,0,11-2.56c5.51-1.47,10.43-1.09,16.11-2.56l7.69-2.2v-1.46c-2.88-3-4.92-6.85-8.06-9.52A235.4,235.4,0,0,0,205.44,169c-5.11-3.23-11.43-5.32-16.85-8.06-1.82-.92-5-1.4-6.23-2.93-2.84-3.63-4.4-8.23-6.59-12.45-4.6-8.85-9.11-18.52-13.18-27.83-2.78-6.35-4.59-12.61-8.06-18.31C137.91,72.06,120,55.56,92.28,39.34c-5.9-3.45-13-4.81-20.51-6.59L59.69,32c-2.46-1-5-4-7.32-5.49-9.18-5.8-32.75-18.42-39.55-1.83-4.3,10.47,6.42,20.7,10.25,26,2.69,3.72,6.14,7.9,8.06,12.08,1.26,2.75,1.48,5.51,2.56,8.42,2.66,7.17,5,15,8.42,21.61A76.56,76.56,0,0,0,48,102.69c1.35,1.84,3.66,2.65,4,5.49-2.26,3.16-2.39,8.08-3.66,12.08-5.72,18-3.56,40.48,4.76,53.84,2.56,4.1,8.57,12.89,16.85,9.52,7.24-2.95,5.62-12.08,7.69-20.14,0.46-1.83.18-3.17,1.1-4.39v0.37l6.6,13.18c4.88,7.86,13.53,16.07,20.87,21.61,3.81,2.87,6.8,7.84,11.72,9.52V203.4h-0.36c-1-1.49-2.45-2.1-3.66-3.29a84.12,84.12,0,0,1-8.42-9.52,222.71,222.71,0,0,1-17.94-29.3c-2.57-4.93-4.8-10.37-7-15.38C79.73,144,79.74,141.05,78,140c-2.37,3.68-5.86,6.65-7.69,11-2.93,6.94-3.31,15.4-4.39,24.17a1.27,1.27,0,0,0-.73.36c-5.1-1.23-6.89-6.48-8.79-11-4.79-11.39-5.69-29.74-1.46-42.85,1.09-3.39,6-14.08,4-17.21-1-3.13-4.1-4.94-5.86-7.33a57.69,57.69,0,0,1-5.86-10.25c-3.92-8.88-5.76-18.85-9.88-27.83-2-4.29-5.32-8.64-8.06-12.45-3-4.23-6.44-7.34-8.79-12.45-0.83-1.82-2-4.72-.73-6.59a2.91,2.91,0,0,1,2.2-2.2c2.12-1.64,8,.55,10.25,1.46A89.31,89.31,0,0,1,48,34.95c2.39,1.58,4.8,4.65,7.69,5.49H59c5.15,1.19,10.93.37,15.75,1.83a95.23,95.23,0,0,1,23.07,11,142.82,142.82,0,0,1,50.17,54.93c1.9,3.64,2.72,7.12,4.39,11,3.37,7.8,7.63,15.81,11,23.44s6.62,15.28,11.35,21.61c2.49,3.33,12.11,5.11,16.48,7,3.06,1.3,8.08,2.64,11,4.39,5.54,3.35,10.91,7.33,16.11,11C220.86,188.39,228.84,192.4,229.24,195.71Z" transform="translate(-11.73 -16.45)"/><path class="cls-1" d="M65.55,56.19a26.15,26.15,0,0,0-6.59.73v0.37h0.36c1.28,2.63,3.54,4.33,5.13,6.59l3.66,7.69,0.36-.36c2.27-1.6,3.31-4.16,3.3-8.06-0.91-1-1-2.16-1.83-3.3C68.89,58.33,66.87,57.46,65.55,56.19Z" transform="translate(-11.73 -16.45)"/><path class="cls-1" d="M74.61,248.74c-14.9,0-28.93-1.12-39.51-3.16-13.33-2.57-19.28-6.09-19.29-11.4l-0.07-29L21.53,208c4.51,2.22,10,3.29,13.35,3.92,10.64,2.05,24.75,3.18,39.73,3.18H75c15,0,29.25-1.17,40-3.26,3.31-.64,8.83-1.72,13.35-3.93l5.74-2.81L134.14,234c0,5.34-6,8.88-19.38,11.48C104.11,247.57,90,248.72,75,248.74H74.61Z" transform="translate(-11.73 -16.45)"/><path class="cls-2" d="M130.09,211.53l0.05,22.5c0,5.88-24.67,10.68-55.14,10.71H74.61c-30.29,0-54.79-4.72-54.79-10.57l-0.05-22.56c5,2.45,10.85,3.58,14.36,4.26,10.89,2.1,25.27,3.26,40.49,3.26H75c15.31,0,29.78-1.2,40.75-3.33,3.51-.68,9.35-1.82,14.34-4.26m8-12.8-11.48,5.62c-4,2-9.24,3-12.35,3.59-10.5,2-24.43,3.17-39.24,3.19H74.61c-14.74,0-28.58-1.1-39-3.11-3.11-.6-8.32-1.6-12.35-3.58l-11.56-5.69,0,12.88,0.05,22.56c0,9.73,12,13.29,22.53,15.31,10.82,2.09,25.12,3.23,40.27,3.23H75c15.24,0,29.63-1.2,40.53-3.31,10.54-2,22.63-5.65,22.62-15.41l-0.05-22.51,0-12.79h0Z" transform="translate(-11.73 -16.45)"/><path class="cls-1" d="M74.61,214c-14.9,0-28.93-1.12-39.51-3.16-13.33-2.57-19.28-6.09-19.29-11.4L15.76,176v-6.13l5.76,2.83c4.5,2.21,10,3.28,13.34,3.92,10.66,2.05,24.77,3.18,39.74,3.18H75c15,0,29.25-1.18,40-3.26,3.3-.64,8.82-1.71,13.34-3.92l5.76-2.81v6.43l0.06,23c0,5.34-6,8.88-19.38,11.48C104.1,212.8,90,213.95,75,214H74.61Z" transform="translate(-11.73 -16.45)"/><path class="cls-2" d="M130.08,176.23v0l0.06,23c0,5.88-24.68,10.68-55.14,10.72H74.61c-30.29,0-54.79-4.72-54.8-10.57l-0.06-23s0-.07,0-0.1c5,2.45,10.85,3.58,14.35,4.26,10.89,2.1,25.27,3.26,40.49,3.26H75c15.31,0,29.78-1.21,40.75-3.34,3.51-.68,9.35-1.82,14.34-4.26m8-12.81L126.57,169c-4,2-9.24,3-12.35,3.59-10.5,2-24.43,3.17-39.23,3.19H74.62c-14.72,0-28.56-1.1-39-3.11-3.11-.6-8.32-1.6-12.34-3.58l-11.53-5.66V176q0,0.23,0,.46l0.06,23c0,9.73,12,13.3,22.53,15.32C45.16,216.82,59.47,218,74.61,218H75c15.24,0,29.63-1.2,40.53-3.32,10.54-2,22.63-5.65,22.62-15.41l-0.06-23v-0.48h0V163.42h0Z" transform="translate(-11.73 -16.45)"/><path class="cls-1" d="M74.62,178.67c-14.9,0-28.93-1.12-39.51-3.16-13.33-2.57-19.28-6.09-19.29-11.4l-0.06-23c0-5.34,6-8.88,19.39-11.48,10.66-2.07,24.78-3.22,39.77-3.24h0.4c14.9,0,28.93,1.12,39.5,3.16,13.32,2.57,19.27,6.09,19.27,11.4l0.06,23c0,5.34-6,8.88-19.38,11.48C104.1,177.5,90,178.65,75,178.67H74.62Z" transform="translate(-11.73 -16.45)"/><path class="cls-2" d="M75.31,130.39c30.29,0,54.77,4.72,54.77,10.57l0.06,23c0,5.87-24.67,10.67-55.14,10.71H74.62c-30.29,0-54.79-4.72-54.8-10.57l-0.06-23c0-5.88,24.69-10.68,55.16-10.71h0.4m0-8h-0.4c-15.24,0-29.63,1.2-40.53,3.31-10.54,2-22.63,5.65-22.62,15.41l0.06,23c0,9.73,12,13.3,22.53,15.32,10.82,2.09,25.12,3.24,40.27,3.24H75c15.24,0,29.63-1.2,40.53-3.31,10.54-2,22.63-5.65,22.62-15.41l-0.06-23c0-9.73-12-13.29-22.52-15.32-10.81-2.09-25.11-3.23-40.26-3.23h0Z" transform="translate(-11.73 -16.45)"/></svg>