<?xml version="1.0" ?><svg enable-background="new 0 0 224 202.8101" id="swift" version="1.1" viewBox="0 0 224 202.8101" xml:space="preserve" xmlns="http://www.w3.org/2000/svg" xmlns:xlink="http://www.w3.org/1999/xlink"><path d="M206.5623,145.8456C222.9063,99.908,197.4571,38.8396,142.6915,0  c23.82,36.2284,31.6796,76.1327,15.074,107.6932C120.6367,83.6192,47.6287,19.8788,47.6287,19.8788s34.2304,52.0936,60.2776,77.3964  c-26.0472-15.6288-40.1876-26.7908-85.582-64.744c31.0936,51.0352,84.2304,97.3184,103.4412,113.3144  C67.7187,176.9044,0,132.252,0,132.252c11.6327,17.6912,28.0547,30.9452,47.6287,44.6524c53.668,37.578,107.1604,28.4648,128,9.1172  c0,0,6.3713-7.1409,20.09-3.1369c9.5468,2.7853,22.2068,12.8829,26.7813,17.6017c0.9803-4.2308,1.5-8.6368,1.5-13.164  C224,171.0724,217.3243,156.3807,206.5623,145.8456z" fill="#EB4548"/></svg>