<?xml version="1.0" encoding="UTF-8" standalone="no"?>
<!-- Created with Inkscape (http://www.inkscape.org/) -->

<svg
   xmlns:dc="http://purl.org/dc/elements/1.1/"
   xmlns:cc="http://creativecommons.org/ns#"
   xmlns:rdf="http://www.w3.org/1999/02/22-rdf-syntax-ns#"
   xmlns:svg="http://www.w3.org/2000/svg"
   xmlns="http://www.w3.org/2000/svg"
   xmlns:sodipodi="http://sodipodi.sourceforge.net/DTD/sodipodi-0.dtd"
   xmlns:inkscape="http://www.inkscape.org/namespaces/inkscape"
   width="60.299999mm"
   height="54.700001mm"
   viewBox="0 0 60.3 54.700001"
   version="1.1"
   id="svg8"
   inkscape:version="0.92.3 (2405546, 2018-03-11)"
   sodipodi:docname="eagle.svg">
  <defs
     id="defs2" />
  <sodipodi:namedview
     id="base"
     pagecolor="#ffffff"
     bordercolor="#666666"
     borderopacity="1.0"
     inkscape:pageopacity="0.0"
     inkscape:pageshadow="2"
     inkscape:zoom="5.6568543"
     inkscape:cx="216.02293"
     inkscape:cy="171.49341"
     inkscape:document-units="mm"
     inkscape:current-layer="layer1"
     showgrid="false"
     inkscape:window-width="2736"
     inkscape:window-height="1699"
     inkscape:window-x="-13"
     inkscape:window-y="-13"
     inkscape:window-maximized="1" />
  <metadata
     id="metadata5">
    <rdf:RDF>
      <cc:Work
         rdf:about="">
        <dc:format>image/svg+xml</dc:format>
        <dc:type
           rdf:resource="http://purl.org/dc/dcmitype/StillImage" />
        <dc:title></dc:title>
      </cc:Work>
    </rdf:RDF>
  </metadata>
  <g
     inkscape:label="Layer 1"
     inkscape:groupmode="layer"
     id="layer1"
     transform="translate(0,-242.3)">
    <g
       id="g4133"
       transform="translate(-35.918805,189.10443)">
      <path
         sodipodi:nodetypes="ccccccccccccsccccccccccscsccccccsscccccccccsccsccscsccccscscccccccccccccccccccccccccccccsccccccs"
         inkscape:connector-curvature="0"
         id="path4099"
         d="m 57.424821,107.70307 c -1.34834,-0.31395 -3.23109,-0.93638 -4.30076,-1.42181 -0.20618,-0.0936 -0.42032,-0.17017 -0.47586,-0.17024 -0.10838,-1.2e-4 -2.06211,-0.97905 -2.82154,-1.41374 -2.54838,-1.45866 -5.97202,-4.2977 -7.4049,-6.140478 -0.25439,-0.327149 -0.48942,-0.62159 -0.522301,-0.654309 -0.654729,-0.651441 -2.189909,-3.176651 -3.399239,-5.5914 -1.22245,-2.440961 -1.743111,-4.04486 -2.20129,-6.781062 -0.233881,-1.39674 -0.270171,-2.055648 -0.278461,-5.05606 -0.009,-3.199389 0.0104,-3.536429 0.264911,-4.639669 0.71974,-3.12005 1.28526,-4.79003 2.45747,-7.25693 0.54577,-1.14856 1.36367,-2.56891 1.7269,-2.99886 0.0668,-0.079 0.12138,-0.175 0.12138,-0.21328 0,-0.12473 0.97255,-1.40514 1.8342,-2.414801 0.93957,-1.100977 2.34637,-2.544406 2.922,-2.998089 0.20755,-0.163578 0.52053,-0.42164 0.69551,-0.573472 0.17498,-0.151831 0.63935,-0.495788 1.03194,-0.764349 0.39259,-0.268562 0.74056,-0.519078 0.77328,-0.556706 0.1131,-0.130081 0.77554,-0.566017 1.36811,-0.900319 1.40713,-0.793853 2.28012,-1.26852 2.55776,-1.390723 0.16358,-0.072 0.53389,-0.234874 0.82291,-0.361944 0.65776,-0.289195 2.90364,-1.049751 3.45987,-1.171668 3.64558,-0.799064 5.1096,-0.981718 7.911239,-0.98702 1.046901,-0.002 2.492341,0.06341 3.212081,0.145313 1.472991,0.167619 4.28711,0.830026 5.100601,1.200616 0.295479,0.134604 0.58988,0.244735 0.65423,0.244735 0.0643,0 0.201599,0.08461 0.305009,0.188019 0.171381,0.171382 0.1695,0.220096 -0.02119,0.550519 -0.115102,0.199375 -0.557242,0.645218 -0.982552,0.990762 -0.85126,0.691621 -9.859689,9.630037 -10.693059,10.609967 -1.309251,1.53948 -2.145941,3.03415 -2.49721,4.46104 -0.438291,1.7804 -0.276211,3.38489 0.49022,4.85296 0.630159,1.20706 0.692189,1.30717 0.809949,1.30717 0.0619,0 0.11247,0.0579 0.11247,0.12868 0,0.10238 0.67946,1.02903 0.95241,1.29891 0.0331,0.0327 0.22046,0.27311 0.41638,0.534219 1.044241,1.391671 1.47058,2.731661 1.28737,4.046281 l -0.0994,0.713491 -2.973631,0.0742 c -3.60554,0.09 -4.83047,0.26688 -6.68731,0.96561 -1.47397,0.554659 -2.99767,1.58791 -4.16781,2.82629 -0.50834,0.53799 -0.54598,0.657608 -0.50882,1.616969 0.0184,0.475271 4.77e-4,0.498499 -0.77294,1.002419 -1.70665,1.111922 -2.67386,2.45015 -2.67386,3.69956 0,0.477631 0.10181,0.829101 0.43615,1.505762 0.23988,0.48549 0.50756,0.910098 0.59483,0.943589 0.0873,0.0335 0.15868,0.125201 0.15868,0.20379 0,0.0786 0.21288,0.30039 0.47306,0.492879 0.26017,0.19249 0.47431,0.390131 0.47586,0.439201 0.002,0.0491 0.10255,0.0892 0.22446,0.0892 0.18751,0 0.23137,-0.1212 0.28482,-0.787122 0.0455,-0.56719 0.12931,-0.85326 0.29983,-1.023779 0.21811,-0.218109 1.48705,-0.804529 1.74365,-0.805799 0.0611,-2.64e-4 0.32881,-0.101711 0.59483,-0.225351 0.26603,-0.123639 0.84504,-0.31895 1.28671,-0.434041 0.76635,-0.199678 0.83832,-0.199678 1.57629,8.2e-5 0.42531,0.115129 0.77328,0.253299 0.77328,0.30706 0,0.0538 0.0974,0.12864 0.21639,0.16641 0.56131,0.178159 2.9957,3.024319 2.9957,3.502419 0,0.0691 0.0964,0.30126 0.21427,0.515911 0.30212,0.550258 0.468771,1.188028 0.6113,2.339388 0.0679,0.54857 0.17848,1.06368 0.245701,1.14468 0.0672,0.081 0.195419,0.51549 0.28487,0.96553 0.105099,0.52877 0.167559,0.68662 0.17653,0.44618 0.0162,-0.435 0.30915,-0.74836 0.51093,-0.54658 0.190809,0.19082 0.188439,2.58189 -0.003,3.32772 l -0.16057,0.62457 -0.55323,-0.0132 c -0.30426,-0.007 -0.87442,-0.088 -1.26701,-0.17938 z M 67.17144,65.742712 c -0.104219,-0.2716 0.13299,-0.69968 0.976781,-1.76272 0.448969,-0.56562 0.92337,-1.177841 1.05423,-1.36049 0.263131,-0.367245 0.7913,-1.027767 0.896062,-1.120602 0.0369,-0.03272 0.197379,-0.246854 0.356568,-0.475864 0.159189,-0.229009 0.383799,-0.52345 0.49912,-0.654313 0.185489,-0.21049 1.987021,-2.503829 2.8505,-3.628675 0.175701,-0.228893 0.44577,-0.569349 0.600141,-0.756571 l 0.28067,-0.340402 1.3385,0.671285 1.338509,0.671285 -0.251741,0.35353 c -0.138448,0.194441 -0.552989,0.607658 -0.921178,0.91826 -0.3682,0.310601 -1.154081,1.026014 -1.746401,1.589803 -0.592309,0.563791 -1.478449,1.401127 -1.96918,1.860745 -0.490739,0.459619 -1.119719,1.049369 -1.397749,1.310558 -0.454231,0.426721 -1.342771,1.231361 -2.706581,2.451011 -0.492099,0.44009 -1.08254,0.57468 -1.198251,0.27316 z m 8.752592,-3.234961 c 0,-0.160623 0.630301,-1.019839 1.221189,-1.664704 1.33766,-1.459863 1.513541,-1.672489 1.69626,-2.050622 0.214151,-0.443171 0.54759,-0.503785 1.0117,-0.183909 0.313169,0.215847 0.581541,0.51533 0.58777,0.655918 0.004,0.08559 -0.374661,0.376944 -2.256571,1.737218 -0.556159,0.402007 -1.064789,0.772031 -1.130279,0.822277 -0.91803,0.704322 -1.130069,0.832622 -1.130069,0.683822 z"
         style="fill:#dd0834;fill-opacity:1;stroke-width:0.11896599" />
      <path
         sodipodi:nodetypes="cccscscccccsscccccccccccccssscccsccsccccccccccscccscccccccccccccccccsccccc"
         inkscape:connector-curvature="0"
         id="path4099-5"
         d="m 72.711948,107.57659 c -0.608346,-0.0629 -2.101545,-0.47171 -2.85519,-0.78168 -0.751856,-0.30925 -2.107549,-1.04149 -2.516878,-1.35943 -0.44976,-0.34934 -2.479691,-2.42976 -2.479691,-2.54137 0,-0.0561 -0.160597,-0.34006 -0.356891,-0.63091 -0.1963,-0.29085 -0.356899,-0.56179 -0.356899,-0.60209 0,-0.0403 -0.10423,-0.30021 -0.231611,-0.57759 -0.702498,-1.529617 -1.013029,-3.155361 -1.005258,-5.262937 0.006,-1.643533 0.14292,-2.615194 0.544581,-3.866401 0.238551,-0.743122 1.104757,-2.611591 1.268259,-2.735712 0.0435,-0.033 0.226788,-0.27413 0.407408,-0.53585 0.824122,-1.194181 2.385351,-2.52285 3.836363,-3.264911 0.518938,-0.26539 0.99046,-0.482518 1.047811,-0.482518 0.0573,0 0.272968,-0.0759 0.47915,-0.168672 0.206179,-0.0928 0.912037,-0.280138 1.568577,-0.416388 1.676273,-0.347842 3.324672,-0.332941 4.935212,0.0446 2.276877,0.53377 2.91116,0.72871 2.94427,0.90487 0.0177,0.094 -0.264922,0.47689 -0.62797,0.85086 -0.596879,0.614841 -1.243629,1.699022 -1.246611,2.089751 -0.0021,0.280749 -0.301048,0.27197 -1.135541,-0.0334 -2.37494,-0.868952 -5.531869,-0.283289 -7.263879,1.34756 -1.694569,1.595602 -2.475251,3.5828 -2.46167,6.266138 0.01,1.929262 0.228531,2.857992 1.057902,4.49091 0.668856,1.31694 2.181119,2.73217 3.288096,3.07715 0.21295,0.0664 0.477364,0.169 0.587592,0.22808 0.830551,0.44518 4.44536,0.43526 4.90918,-0.0135 0.0622,-0.0601 0.190812,-0.10934 0.28589,-0.10934 0.269531,0 1.682999,-0.69928 1.682999,-0.83262 0,-0.0655 0.0707,-0.11912 0.15703,-0.11912 0.0864,0 0.37179,-0.239 0.634283,-0.53111 l 0.47725,-0.53112 1.864,0.91736 c 1.025211,0.50455 1.864011,0.94653 1.864011,0.98219 0,0.13721 -0.810035,0.91354 -1.54686,1.48254 -0.423672,0.32714 -0.841653,0.66174 -0.928854,0.74353 -0.0872,0.0818 -0.204428,0.14871 -0.260509,0.14871 -0.0561,0 -0.174781,0.0669 -0.263779,0.14872 -0.26266,0.24139 -0.788799,0.52957 -1.758643,0.96326 -0.496488,0.22202 -1.709666,0.53336 -2.617248,0.67169 -0.644861,0.0983 -3.11418,0.1226 -3.925882,0.0387 z m 12.66988,0.0128 c -0.602917,-0.0838 -2.557878,-0.57461 -2.555946,-0.64167 0.004,-0.13151 0.194918,-0.32355 0.771461,-0.77511 0.32715,-0.25625 0.991116,-0.8567 1.475486,-1.33435 l 0.88066,-0.86844 h 1.036299 c 1.017053,0 2.085041,-0.14034 2.555854,-0.33584 0.13086,-0.0543 0.486341,-0.21948 0.789961,-0.36695 1.84132,-0.89443 2.228477,-3.10448 0.76843,-4.386417 -0.79003,-0.69366 -1.740324,-1.032761 -4.889445,-1.744771 -3.20344,-0.724289 -5.427599,-2.09895 -6.170125,-3.8135 -0.113343,-0.261731 -0.265811,-0.582901 -0.338813,-0.713711 -0.073,-0.130818 -0.156091,-0.746469 -0.184628,-1.36811 -0.0456,-0.992918 -0.0132,-1.24591 0.266739,-2.081988 0.40513,-1.21004 0.722307,-1.69151 1.841738,-2.795701 0.970682,-0.957469 1.96165,-1.534139 3.514389,-2.045121 0.738071,-0.24289 1.049213,-0.272658 2.736223,-0.26176 1.659581,0.01069 2.04543,0.0517 3.011527,0.320281 1.713215,0.476199 2.669255,1.008861 3.734025,2.0804 0.50392,0.507129 0.87866,0.9754 0.832755,1.040609 -0.0892,0.126741 -0.56637,0.523581 -1.210805,1.00698 -0.968951,0.726821 -1.264142,0.957972 -1.442262,1.129411 -0.172363,0.165891 -0.28829,0.110101 -1.229802,-0.59183 -1.348306,-1.005221 -2.220878,-1.289 -3.991258,-1.298041 -0.990788,-0.005 -1.349639,0.0405 -1.726602,0.219181 -0.863737,0.409419 -1.546876,0.983131 -1.818666,1.527339 -0.906331,1.814751 0.524327,3.440692 3.722126,4.230171 0.523449,0.129231 1.460299,0.351179 2.081903,0.493221 1.192991,0.272608 2.832251,0.875929 3.70272,1.362779 0.45076,0.2521 1.260477,0.970301 1.73863,1.54211 0.284916,0.34072 0.7245,1.445731 0.852971,2.144191 0.722099,3.925737 -1.474425,6.960787 -5.818452,8.039667 -0.980329,0.24347 -3.991123,0.41849 -4.937093,0.28697 z"
         style="fill:#909090;fill-opacity:1;stroke-width:0.11896599" />
    </g>
  </g>
</svg>
