<?xml version="1.0" encoding="iso-8859-1"?>
<!-- Generator: Adobe Illustrator 19.0.0, SVG Export Plug-In . SVG Version: 6.00 Build 0)  -->
<svg version="1.1" id="Capa_1" xmlns="http://www.w3.org/2000/svg" xmlns:xlink="http://www.w3.org/1999/xlink" x="0px" y="0px"
	 viewBox="0 0 490 490" style="enable-background:new 0 0 490 490;" xml:space="preserve">
<g>
	<path d="M156.245,372.689c13.114,0,21.578-1.525,25.406-4.606c3.828-3.081,5.742-9.854,5.742-20.352v-2.587h-14.356l0.105,3.365
		c0,5.009-1.062,8.24-3.17,9.72c-2.123,1.465-6.729,2.213-13.832,2.213c-8.763,0-13.952-1.331-15.552-3.978
		c-1.6-2.662-2.393-11.2-2.393-25.63c0-10.707,0.882-17.152,2.677-19.32c1.779-2.168,7.118-3.26,15.985-3.26
		c6.624,0,10.871,0.688,12.725,2.064c1.854,1.391,2.781,4.546,2.781,9.481v1.929h14.37l-0.06-1.705
		c0-9.585-1.809-15.971-5.413-19.201c-3.604-3.215-10.781-4.83-21.533-4.83c-14.759,0-24.464,1.959-29.1,5.877
		c-4.636,3.933-6.953,12.112-6.953,24.554c0,21.13,1.705,34.124,5.129,38.984C132.23,370.266,141.381,372.689,156.245,372.689z"/>
	<path d="M209.48,357.571h32.524l4.8,14.46h14.864l-25.466-75.366h-21.473l-25.077,75.366h15.133L209.48,357.571z M225.66,307.76
		l13.025,39.253h-25.84L225.66,307.76z"/>
	<path d="M328.586,364.001c3.38-5.353,5.084-17.451,5.084-36.263c0-11.514-2.094-19.574-6.31-24.18
		c-4.217-4.606-11.604-6.894-22.131-6.894h-37.055v75.366h37.504C317.58,372.031,325.206,369.354,328.586,364.001z M282.484,359.993
		v-51.291h21.249c6.669,0,10.916,1.495,12.711,4.516c1.794,3.021,2.692,10.094,2.692,21.204c0,10.752-0.987,17.705-2.991,20.845
		c-2.004,3.155-6.43,4.725-13.279,4.725H282.484z"/>
	<path d="M77.788,0v265.111H42.189v139.615h0.001l35.59,35.591L77.788,490h370.023V102.422L345.388,0H77.788z M395.793,389.413
		H57.501v-108.99h338.292V389.413z M353.022,36.962l57.816,57.804h-57.816V36.962z"/>
</g>
<g>
</g>
<g>
</g>
<g>
</g>
<g>
</g>
<g>
</g>
<g>
</g>
<g>
</g>
<g>
</g>
<g>
</g>
<g>
</g>
<g>
</g>
<g>
</g>
<g>
</g>
<g>
</g>
<g>
</g>
</svg>
