<svg viewBox="0 0 16 16" fill="none" xmlns="http://www.w3.org/2000/svg" id="Processor--Streamline-Unicons" height="16" width="16">
  <desc>
    Processor Streamline Icon: https://streamlinehq.com
  </desc>
  <path d="M9.568 5.648H6.4319999999999995c-0.20793333333333333 0 -0.4073333333333333 0.08259999999999999 -0.5544 0.22959999999999997 -0.147 0.14706666666666665 -0.22959999999999997 0.3464666666666667 -0.22959999999999997 0.5544v3.1359999999999997c0 0.20793333333333333 0.08259999999999999 0.4074 0.22959999999999997 0.5544 0.14706666666666665 0.147 0.3464666666666667 0.22959999999999997 0.5544 0.22959999999999997h3.1359999999999997c0.20793333333333333 0 0.4074 -0.08266666666666667 0.5544 -0.22959999999999997s0.22959999999999997 -0.3464666666666667 0.22959999999999997 -0.5544V6.4319999999999995c0 -0.20793333333333333 -0.08259999999999999 -0.4073333333333333 -0.22959999999999997 -0.5544 -0.147 -0.147 -0.3464666666666667 -0.22959999999999997 -0.5544 -0.22959999999999997Zm-0.7839999999999999 3.1359999999999997h-1.5679999999999998v-1.5679999999999998h1.5679999999999998v1.5679999999999998Zm6.271999999999999 0c0.20793333333333333 0 0.4073333333333333 -0.08259999999999999 0.5544 -0.22959999999999997s0.22959999999999997 -0.3464666666666667 0.22959999999999997 -0.5544c0 -0.20793333333333333 -0.08259999999999999 -0.4073333333333333 -0.22959999999999997 -0.5543333333333333s-0.3464666666666667 -0.22966666666666663 -0.5544 -0.22966666666666663h-1.5679999999999998V5.648h1.5679999999999998c0.20793333333333333 0 0.4074 -0.08259999999999999 0.5544 -0.22959999999999997 0.147 -0.14706666666666665 0.22959999999999997 -0.3464666666666667 0.22959999999999997 -0.5544s-0.08259999999999999 -0.4073333333333333 -0.22959999999999997 -0.5544c-0.147 -0.147 -0.3464666666666667 -0.22959999999999997 -0.5544 -0.22959999999999997h-1.7091333333333332c-0.11706666666666667 -0.3288 -0.30579999999999996 -0.6274666666666666 -0.5526 -0.8742666666666665 -0.24679999999999996 -0.2467333333333333 -0.5454666666666667 -0.43553333333333333 -0.8742666666666665 -0.5526V0.944c0 -0.20793333333333333 -0.08259999999999999 -0.4073333333333333 -0.22959999999999997 -0.5544C11.5434 0.24259999999999998 11.343933333333332 0.15999999999999998 11.136 0.15999999999999998c-0.20793333333333333 0 -0.4073333333333333 0.08259999999999999 -0.5543333333333333 0.22959999999999997 -0.147 0.14706666666666665 -0.22966666666666663 0.3464666666666667 -0.22966666666666663 0.5544v1.5679999999999998h-1.5679999999999998V0.944c0 -0.20793333333333333 -0.08259999999999999 -0.4073333333333333 -0.22959999999999997 -0.5544C8.407399999999999 0.24259999999999998 8.207933333333333 0.15999999999999998 8 0.15999999999999998c-0.20793333333333333 0 -0.4073333333333333 0.08259999999999999 -0.5543333333333333 0.22959999999999997 -0.147 0.14706666666666665 -0.22966666666666663 0.3464666666666667 -0.22966666666666663 0.5544v1.5679999999999998H5.648V0.944c0 -0.20793333333333333 -0.08259999999999999 -0.4073333333333333 -0.22959999999999997 -0.5544C5.271333333333333 0.24259999999999998 5.071933333333333 0.15999999999999998 4.864 0.15999999999999998s-0.4073333333333333 0.08259999999999999 -0.5544 0.22959999999999997c-0.147 0.14706666666666665 -0.22959999999999997 0.3464666666666667 -0.22959999999999997 0.5544v1.7091333333333332c-0.3288 0.11706666666666667 -0.6274666666666666 0.3058666666666666 -0.8742666666666665 0.5526 -0.2467333333333333 0.24679999999999996 -0.43553333333333333 0.5454666666666667 -0.5526 0.8742666666666665H0.944c-0.20793333333333333 0 -0.4073333333333333 0.08259999999999999 -0.5544 0.22959999999999997C0.24259999999999998 4.456666666666666 0.15999999999999998 4.656066666666666 0.15999999999999998 4.864s0.08259999999999999 0.4073333333333333 0.22959999999999997 0.5544c0.14706666666666665 0.147 0.3464666666666667 0.22959999999999997 0.5544 0.22959999999999997h1.5679999999999998v1.5679999999999998H0.944c-0.20793333333333333 0 -0.4073333333333333 0.08266666666666667 -0.5544 0.22966666666666663C0.24259999999999998 7.592666666666666 0.15999999999999998 7.792066666666667 0.15999999999999998 8c0 0.20793333333333333 0.08259999999999999 0.4074 0.22959999999999997 0.5544 0.14706666666666665 0.147 0.3464666666666667 0.22959999999999997 0.5544 0.22959999999999997h1.5679999999999998v1.5679999999999998H0.944c-0.20793333333333333 0 -0.4073333333333333 0.08266666666666667 -0.5544 0.22966666666666663 -0.147 0.147 -0.22959999999999997 0.34639999999999993 -0.22959999999999997 0.5543333333333333 0 0.20793333333333333 0.08259999999999999 0.4074 0.22959999999999997 0.5544 0.14706666666666665 0.147 0.3464666666666667 0.22959999999999997 0.5544 0.22959999999999997h1.7091333333333332c0.11706666666666667 0.3288 0.3058666666666666 0.6274666666666666 0.5526 0.8742666666666665 0.24679999999999996 0.24679999999999996 0.5454666666666667 0.4356 0.8742666666666665 0.5526v1.7091333333333332c0 0.20793333333333333 0.08259999999999999 0.4074 0.22959999999999997 0.5544 0.14706666666666665 0.147 0.3464666666666667 0.22959999999999997 0.5544 0.22959999999999997s0.4073333333333333 -0.08259999999999999 0.5544 -0.22959999999999997c0.147 -0.147 0.22959999999999997 -0.3464666666666667 0.22959999999999997 -0.5544v-1.5679999999999998h1.5679999999999998v1.5679999999999998c0 0.20793333333333333 0.08266666666666667 0.4074 0.22966666666666663 0.5544s0.34639999999999993 0.22959999999999997 0.5543333333333333 0.22959999999999997c0.20793333333333333 0 0.4074 -0.08259999999999999 0.5544 -0.22959999999999997s0.22959999999999997 -0.3464666666666667 0.22959999999999997 -0.5544v-1.5679999999999998h1.5679999999999998v1.5679999999999998c0 0.20793333333333333 0.08266666666666667 0.4074 0.22966666666666663 0.5544s0.34639999999999993 0.22959999999999997 0.5543333333333333 0.22959999999999997c0.20793333333333333 0 0.4074 -0.08259999999999999 0.5544 -0.22959999999999997s0.22959999999999997 -0.3464666666666667 0.22959999999999997 -0.5544v-1.7091333333333332c0.3288 -0.11706666666666667 0.6274666666666666 -0.30579999999999996 0.8742666666666665 -0.5526 0.24679999999999996 -0.24679999999999996 0.4356 -0.5454666666666667 0.5526 -0.8742666666666665h1.7091333333333332c0.20793333333333333 0 0.4074 -0.08259999999999999 0.5544 -0.22959999999999997s0.22959999999999997 -0.3464666666666667 0.22959999999999997 -0.5544c0 -0.20793333333333333 -0.08259999999999999 -0.4073333333333333 -0.22959999999999997 -0.5543333333333333s-0.3464666666666667 -0.22966666666666663 -0.5544 -0.22966666666666663h-1.5679999999999998v-1.5679999999999998h1.5679999999999998Zm-3.1359999999999997 2.352c0 0.20793333333333333 -0.08266666666666667 0.4074 -0.22959999999999997 0.5544s-0.3464666666666667 0.22959999999999997 -0.5544 0.22959999999999997H4.864c-0.20793333333333333 0 -0.4073333333333333 -0.08259999999999999 -0.5544 -0.22959999999999997 -0.147 -0.147 -0.22959999999999997 -0.3464666666666667 -0.22959999999999997 -0.5544V4.864c0 -0.20793333333333333 0.08259999999999999 -0.4073333333333333 0.22959999999999997 -0.5544 0.14706666666666665 -0.147 0.3464666666666667 -0.22959999999999997 0.5544 -0.22959999999999997h6.271999999999999c0.20793333333333333 0 0.4074 0.08259999999999999 0.5544 0.22959999999999997 0.147 0.14706666666666665 0.22959999999999997 0.3464666666666667 0.22959999999999997 0.5544v6.271999999999999Z" fill="#ffffff" stroke-width="0.6667"></path>
</svg>