<?xml version="1.0" encoding="UTF-8" standalone="no"?>
<!-- Created with Inkscape (http://www.inkscape.org/) -->

<svg
   xmlns:dc="http://purl.org/dc/elements/1.1/"
   xmlns:cc="http://creativecommons.org/ns#"
   xmlns:rdf="http://www.w3.org/1999/02/22-rdf-syntax-ns#"
   xmlns:svg="http://www.w3.org/2000/svg"
   xmlns="http://www.w3.org/2000/svg"
   xmlns:sodipodi="http://sodipodi.sourceforge.net/DTD/sodipodi-0.dtd"
   xmlns:inkscape="http://www.inkscape.org/namespaces/inkscape"
   width="480"
   height="480"
   viewBox="0 0 480.00001 480.00001"
   id="svg2"
   version="1.1"
   inkscape:version="0.91 r13725"
   sodipodi:docname="github.svg">
  <defs
     id="defs4" />
  <sodipodi:namedview
     id="base"
     pagecolor="#ffffff"
     bordercolor="#666666"
     borderopacity="1.0"
     inkscape:pageopacity="0.0"
     inkscape:pageshadow="2"
     inkscape:zoom="0.98994949"
     inkscape:cx="236.02501"
     inkscape:cy="447.99718"
     inkscape:document-units="px"
     inkscape:current-layer="g4227"
     showgrid="false"
     inkscape:window-width="2560"
     inkscape:window-height="1377"
     inkscape:window-x="2552"
     inkscape:window-y="-8"
     inkscape:window-maximized="1"
     units="px" />
  <metadata
     id="metadata7">
    <rdf:RDF>
      <cc:Work
         rdf:about="">
        <dc:format>image/svg+xml</dc:format>
        <dc:type
           rdf:resource="http://purl.org/dc/dcmitype/StillImage" />
        <dc:title></dc:title>
      </cc:Work>
    </rdf:RDF>
  </metadata>
  <g
     inkscape:label="Layer 1"
     inkscape:groupmode="layer"
     id="layer1"
     transform="translate(0,-572.3621)">
    <g
       id="g4267"
       transform="translate(6.8571427,33.505062)">
      <g
         id="g4227">
        <path
           id="path4229"
           d="m 233.14286,538.85714 c -141.385003,0 -240.0000027,98.615 -240.0000027,240 0,141.385 98.6149997,239.99996 240.0000027,239.99996 141.385,0 240,-98.61496 240,-239.99996 0,-141.385 -98.615,-240 -240,-240 z m 152.027,392.027 c -19.76,19.759 -42.756,35.267 -68.354,46.094 -6.502,2.75 -13.105,5.164 -19.801,7.246 l 0,-38.367 c 0,-20.167 -6.916,-35 -20.75,-44.5 8.668,-0.833 16.625,-2 23.875,-3.5 7.25,-1.5 14.918,-3.667 23,-6.5 8.084,-2.833 15.334,-6.208 21.75,-10.125 6.418,-3.917 12.584,-9 18.5,-15.25 5.918,-6.25 10.875,-13.333 14.875,-21.25 4,-7.917 7.168,-17.417 9.5,-28.5 2.334,-11.083 3.5,-23.292 3.5,-36.625 0,-25.833 -8.416,-47.833 -25.25,-66 7.668,-20 6.834,-41.75 -2.5,-65.25 l -6.25,-0.75 c -4.332,-0.5 -12.125,1.333 -23.375,5.5 -11.25,4.167 -23.875,11 -37.875,20.5 -19.832,-5.5 -40.416,-8.25 -61.749,-8.25 -21.5,0 -42,2.75 -61.5,8.25 -8.833,-6 -17.208,-10.958 -25.125,-14.875 -7.917,-3.917 -14.25,-6.583 -19,-8 -4.75,-1.417 -9.167,-2.292 -13.25,-2.625 -4.083,-0.333 -6.708,-0.417 -7.875,-0.25 -1.167,0.167 -2,0.333 -2.5,0.5 -9.333003,23.667 -10.167003,45.417 -2.5,65.25 -16.833003,18.167 -25.250003,40.167 -25.250003,66 0,13.333 1.167,25.542 3.5,36.625 2.333,11.083 5.5,20.583 9.5,28.5 4,7.917 8.958,15 14.875003,21.25 5.917,6.25 12.083,11.333 18.5,15.25 6.417,3.917 13.667,7.292 21.75,10.125 8.083,2.833 15.75,5 23,6.5 7.25,1.5 15.208,2.667 23.875,3.5 -13.667,9.333 -20.5,24.167 -20.5,44.5 l 0,39.115 c -7.549,-2.247 -14.99,-4.902 -22.3,-7.994 -25.597,-10.827 -48.594,-26.335 -68.353003,-46.094 -19.758,-19.758 -35.267,-42.756 -46.093,-68.354 -11.198,-26.478 -16.877,-54.63 -16.877,-83.673 0,-29.043 5.679,-57.195 16.879,-83.675 10.827,-25.597 26.335,-48.594 46.093,-68.353 19.758003,-19.759 42.756003,-35.267 68.353003,-46.093 26.48,-11.2 54.632,-16.879 83.675,-16.879 29.043,0 57.195,5.679 83.676,16.879 25.598,10.827 48.594,26.335 68.354,46.093 19.758,19.758 35.266,42.756 46.092,68.353 11.198,26.48 16.878,54.632 16.878,83.675 0,29.043 -5.68,57.195 -16.879,83.675 -10.826,25.596 -26.336,48.595 -46.094,68.352 z"
           inkscape:connector-curvature="0"
           style="fill:#287492"
           sodipodi:nodetypes="ssssssccscscccscscccscscssssccssssssscscsssscscscccscs" />
      </g>
      <g
         id="g4231" />
      <g
         id="g4233" />
      <g
         id="g4235" />
      <g
         id="g4237" />
      <g
         id="g4239" />
      <g
         id="g4241" />
      <g
         id="g4243" />
      <g
         id="g4245" />
      <g
         id="g4247" />
      <g
         id="g4249" />
      <g
         id="g4251" />
      <g
         id="g4253" />
      <g
         id="g4255" />
      <g
         id="g4257" />
      <g
         id="g4259" />
    </g>
  </g>
</svg>
